<svg width="32" height="32" viewBox="0 0 32 32" fill="none" xmlns="http://www.w3.org/2000/svg">
<path fill-rule="evenodd" clip-rule="evenodd" d="M0 16C0 7.16344 7.16344 0 16 0C24.8366 0 32 7.16344 32 16C32 24.8366 24.8366 32 16 32C7.16344 32 0 24.8366 0 16Z" fill="#4E4D4D"/>
<path d="M8.43597 10.184C8 11.0397 8 12.1598 8 14.4V17.6C8 19.8402 8 20.9603 8.43597 21.816C8.81947 22.5686 9.43139 23.1805 10.184 23.564C11.0397 24 12.1598 24 14.4 24H15.9315V17.9348H13.6626V15.3803H15.9315V13.4334C15.9315 11.2186 17.2656 9.99518 19.3067 9.99518C20.2844 9.99518 21.307 10.1678 21.307 10.1678V12.3425H20.1802C19.0702 12.3425 18.724 13.0237 18.724 13.7226V15.3803H21.2023L20.8061 17.9348H18.724V23.9973C20.2419 23.9854 21.1171 23.9201 21.816 23.564C22.5686 23.1805 23.1805 22.5686 23.564 21.816C24 20.9603 24 19.8402 24 17.6V14.4C24 12.1598 24 11.0397 23.564 10.184C23.1805 9.43139 22.5686 8.81947 21.816 8.43597C20.9603 8 19.8402 8 17.6 8H14.4C12.1598 8 11.0397 8 10.184 8.43597C9.43139 8.81947 8.81947 9.43139 8.43597 10.184Z" fill="white"/>
</svg>
